<?xml version="1.0" encoding="UTF-8" standalone="no"?>
<!-- Created with Inkscape (http://www.inkscape.org/) -->

<svg
   xmlns:dc="http://purl.org/dc/elements/1.1/"
   xmlns:cc="http://creativecommons.org/ns#"
   xmlns:rdf="http://www.w3.org/1999/02/22-rdf-syntax-ns#"
   xmlns:svg="http://www.w3.org/2000/svg"
   xmlns="http://www.w3.org/2000/svg"
   xmlns:sodipodi="http://sodipodi.sourceforge.net/DTD/sodipodi-0.dtd"
   xmlns:inkscape="http://www.inkscape.org/namespaces/inkscape"
   width="58.260254mm"
   height="13.495729mm"
   viewBox="0 0 206.43396 47.819514"
   id="svg2"
   version="1.1"
   inkscape:version="0.91 r13725"
   sodipodi:docname="jlg-consulting.svg">
  <defs
     id="defs4" />
  <sodipodi:namedview
     id="base"
     pagecolor="#d2d2d2"
     bordercolor="#666666"
     borderopacity="1.0"
     inkscape:pageopacity="0"
     inkscape:pageshadow="2"
     inkscape:zoom="5.2933537"
     inkscape:cx="90.248287"
     inkscape:cy="16.351704"
     inkscape:document-units="px"
     inkscape:current-layer="layer1"
     showgrid="false"
     inkscape:window-width="1280"
     inkscape:window-height="961"
     inkscape:window-x="-8"
     inkscape:window-y="-8"
     inkscape:window-maximized="1"
     fit-margin-top="2"
     fit-margin-left="2"
     fit-margin-right="2"
     fit-margin-bottom="2"
     showguides="true" />
  <metadata
     id="metadata7">
    <rdf:RDF>
      <cc:Work
         rdf:about="">
        <dc:format>image/svg+xml</dc:format>
        <dc:type
           rdf:resource="http://purl.org/dc/dcmitype/StillImage" />
        <dc:title />
      </cc:Work>
    </rdf:RDF>
  </metadata>
  <g
     inkscape:label="Layer 1"
     inkscape:groupmode="layer"
     id="layer1"
     transform="translate(-183.48118,-274.91232)">
    <g
       style="font-style:normal;font-variant:normal;font-weight:normal;font-stretch:normal;font-size:172.29316711px;line-height:125%;font-family:'Arial Rounded MT Bold';-inkscape-font-specification:'Arial Rounded MT Bold, ';letter-spacing:0px;word-spacing:0px;fill:#00c800;fill-opacity:1;stroke:none;stroke-width:1px;stroke-linecap:butt;stroke-linejoin:miter;stroke-opacity:1"
       id="text4353"
       transform="matrix(0.17708279,0,0,0.17708279,174.11247,232.06178)">
      <path
         d="m 174.78052,297.14189 0,64.60994 q 0,8.41275 -0.75714,14.30168 -0.67302,5.88893 -3.19685,11.94611 -4.20638,10.17943 -13.88104,15.9001 -9.67467,5.63654 -23.55571,5.63654 -12.535,0 -20.94775,-3.95399 -8.32863,-3.95399 -13.460404,-12.78738 -2.692081,-4.71115 -4.374631,-10.85245 -1.682551,-6.14131 -1.682551,-11.69373 0,-5.88893 3.280974,-9.00165 3.280973,-3.11271 8.412752,-3.11271 4.96352,0 7.48735,2.86033 2.52383,2.86034 3.86987,8.91752 1.43016,6.47782 2.86033,10.34769 1.43017,3.86986 4.79527,6.64607 3.3651,2.77621 9.59054,2.77621 16.57312,0 16.57312,-24.31286 l 0,-68.22742 q 0,-7.57147 3.28097,-11.35721 3.3651,-3.78574 9.08578,-3.78574 5.80479,0 9.1699,3.78574 3.44922,3.78574 3.44922,11.35721 z"
         id="path4372"
         inkscape:connector-curvature="0" />
      <path
         d="m 226.51895,297.14189 0,89.76407 50.64477,0 q 6.05718,0 9.25403,2.94446 3.28097,2.94447 3.28097,7.40322 0,4.54289 -3.19684,7.40323 -3.19685,2.7762 -9.33816,2.7762 l -60.31943,0 q -8.16037,0 -11.77786,-3.61748 -3.53335,-3.61748 -3.53335,-11.69372 l 0,-94.97998 q 0,-7.57147 3.3651,-11.35721 3.44923,-3.78574 9.00164,-3.78574 5.63655,0 9.08578,3.78574 3.53335,3.70161 3.53335,11.35721 z"
         id="path4374"
         inkscape:connector-curvature="0" />
      <path
         d="m 407.89789,357.29307 0,23.63984 q 0,4.71114 -0.9254,7.57147 -0.92541,2.77621 -3.44923,5.04765 -2.4397,2.27145 -6.30957,4.37463 -11.18896,6.05719 -21.53664,8.83339 -10.34769,2.77621 -22.54618,2.77621 -14.21755,0 -25.91127,-4.37463 -11.69373,-4.37463 -19.93823,-12.70325 -8.24449,-8.32863 -12.70325,-20.19061 -4.37463,-11.86198 -4.37463,-26.50017 0,-14.38581 4.2905,-26.33191 4.2905,-11.94611 12.61913,-20.27474 8.32862,-8.32862 20.27473,-12.70325 11.94611,-4.45876 27.08906,-4.45876 12.45088,0 22.04141,3.3651 9.59054,3.28097 15.5636,8.32862 5.97305,5.04766 9.00164,10.6842 3.02859,5.63654 3.02859,10.01117 0,4.71115 -3.53335,8.07625 -3.44923,3.28097 -8.32863,3.28097 -2.69208,0 -5.21591,-1.26191 -2.43969,-1.26192 -4.12224,-3.53336 -4.62702,-7.23497 -7.82386,-10.93658 -3.19685,-3.70161 -8.66514,-6.22543 -5.38416,-2.52383 -13.79691,-2.52383 -8.66514,0 -15.47947,3.02859 -6.81433,2.94447 -11.69372,8.66514 -4.79527,5.63654 -7.40322,13.88104 -2.52383,8.2445 -2.52383,18.25567 0,21.7049 9.92705,33.39863 10.01117,11.69372 27.84621,11.69372 8.66513,0 16.23661,-2.27144 7.6556,-2.27144 15.47946,-6.47782 l 0,-20.02235 -19.34933,0 q -6.98258,0 -10.60006,-2.10319 -3.53336,-2.10319 -3.53336,-7.15084 0,-4.12225 2.94446,-6.81433 3.02859,-2.69208 8.16037,-2.69208 l 28.35098,0 q 5.2159,0 8.83339,0.9254 3.61748,0.92541 5.8048,4.12225 2.27144,3.19685 2.27144,9.59054 z"
         id="path4376"
         inkscape:connector-curvature="0" />
    </g>
    <g
       style="font-style:normal;font-variant:normal;font-weight:normal;font-stretch:normal;font-size:124.23511505px;line-height:125%;font-family:'Arial Rounded MT Bold';-inkscape-font-specification:'Arial Rounded MT Bold, ';letter-spacing:0px;word-spacing:0px;fill:#ffffff;fill-opacity:1;stroke:none;stroke-width:1px;stroke-linecap:butt;stroke-linejoin:miter;stroke-opacity:1"
       id="consulting"
       transform="matrix(0.17708279,0,0,0.17708279,174.11247,232.06178)"
       inkscape:label="#text4357">
      <path
         d="m 491.15671,375.67133 q 1.15257,-1.5772 2.48713,-2.3658 1.39522,-0.7886 2.97242,-0.7886 2.72978,0 4.4283,1.88051 1.75919,1.88051 1.75919,6.36947 l 0,10.55514 q 0,4.48896 -1.75919,6.43013 -1.69852,1.88052 -4.4283,1.88052 -2.48713,0 -4.00367,-1.39522 -1.51654,-1.39522 -2.24448,-5.21691 -0.42463,-2.54779 -1.69853,-3.94301 -2.48713,-2.72977 -6.97609,-4.36764 -4.4283,-1.63786 -8.91727,-1.63786 -5.58087,0 -10.25182,2.42647 -4.67095,2.42646 -8.24999,7.88601 -3.57904,5.45955 -3.57904,12.9816 l 0,8.06801 q 0,8.97792 6.4908,14.98343 6.55146,6.00551 18.13784,6.00551 6.91543,0 11.70771,-1.88052 2.79043,-1.09191 5.94484,-4.30698 1.94117,-1.94117 3.03308,-2.48712 1.09191,-0.60662 2.48713,-0.60662 2.48713,0 4.36764,1.88051 1.88052,1.88051 1.88052,4.4283 0,2.54779 -2.54779,5.45955 -3.70037,4.24632 -9.52389,6.67279 -7.82535,3.27573 -17.28858,3.27573 -11.04042,0 -19.89703,-4.54963 -7.15807,-3.6397 -12.19299,-11.46505 -5.03492,-7.88602 -5.03492,-17.16726 l 0,-8.43197 q 0,-9.70587 4.48896,-18.07718 4.54963,-8.43197 12.55697,-12.9816 8.00734,-4.54963 16.98527,-4.54963 5.39889,0 10.06984,1.2739 4.73161,1.21323 8.79594,3.76102 z"
         style="font-style:normal;font-variant:normal;font-weight:bold;font-stretch:normal;font-family:'Courier New';-inkscape-font-specification:'Courier New Bold';fill:#ffffff"
         id="path4379"
         inkscape:connector-curvature="0" />
      <path
         d="m 578.44886,419.52973 q 0,7.15807 -4.00367,13.89152 -3.94301,6.67279 -11.82903,10.67646 -7.82535,3.943 -16.37865,3.943 -8.49263,0 -16.25733,-3.88234 -7.76469,-3.94301 -11.82902,-10.67646 -4.06434,-6.73344 -4.06434,-14.07351 0,-7.46138 4.125,-14.61946 4.12499,-7.21874 11.82902,-11.34373 7.7647,-4.125 16.19667,-4.125 8.49264,0 16.31799,4.24632 7.88602,4.18565 11.88969,11.34373 4.00367,7.09742 4.00367,14.61947 z m -12.43564,0.0607 q 0,-6.00551 -4.30698,-11.04043 -5.88418,-6.79411 -15.46873,-6.79411 -8.43197,0 -14.07351,5.39889 -5.64153,5.39889 -5.64153,12.49631 0,5.82352 5.70219,10.9191 5.7022,5.03492 14.01285,5.03492 8.37131,0 14.07351,-5.03492 5.7022,-5.09558 5.7022,-10.97976 z"
         style="font-style:normal;font-variant:normal;font-weight:bold;font-stretch:normal;font-family:'Courier New';-inkscape-font-specification:'Courier New Bold';fill:#ffffff"
         id="path4381"
         inkscape:connector-curvature="0" />
      <path
         d="m 608.05176,390.95808 0,4.18565 q 3.39705,-2.91176 7.46139,-4.36764 4.12499,-1.45588 8.91726,-1.45588 11.04043,0 17.47057,6.85477 5.09558,5.45955 5.09558,14.31616 l 0,23.1121 q 3.94301,0 5.82352,1.75918 1.88051,1.69853 1.88051,4.48897 0,2.72977 -1.94117,4.48896 -1.88052,1.69853 -6.36948,1.69853 l -11.22241,0 q -4.48896,0 -6.43014,-1.69853 -1.88051,-1.75919 -1.88051,-4.54962 0,-2.72978 1.88051,-4.42831 1.88051,-1.75918 5.82352,-1.75918 l 0,-23.47607 q 0,-4.06434 -2.18382,-5.94485 -2.8511,-2.42647 -8.55329,-2.42647 -4.30698,0 -7.58271,1.69853 -3.21507,1.63787 -8.18933,7.03676 l 0,23.1121 q 4.79227,0 6.18749,0.90992 2.97242,1.81985 2.97242,5.33823 0,2.72977 -1.94117,4.48896 -1.88051,1.69853 -6.36948,1.69853 l -14.13417,0 q -4.48896,0 -6.43014,-1.69853 -1.88051,-1.75919 -1.88051,-4.54962 0,-3.39706 2.91176,-5.27757 1.45588,-0.90992 6.24816,-0.90992 l 0,-30.20952 q -3.94301,0 -5.82352,-1.75919 -1.88052,-1.75919 -1.88052,-4.48896 0,-2.72978 1.88052,-4.4283 1.94117,-1.75919 6.43013,-1.75919 l 11.82903,0 z"
         style="font-style:normal;font-variant:normal;font-weight:bold;font-stretch:normal;font-family:'Courier New';-inkscape-font-specification:'Courier New Bold';fill:#ffffff"
         id="path4383"
         inkscape:connector-curvature="0" />
      <path
         d="m 708.56816,405.51688 q -3.03309,-1.88051 -6.36948,-2.79044 -3.33639,-0.97059 -6.97609,-0.97059 -7.21874,0 -11.46506,2.36581 -1.88051,1.03125 -1.88051,2.24448 0,1.39522 2.54779,2.72978 1.94117,0.97058 8.67462,1.88051 12.37498,1.69853 17.22792,3.39705 6.36947,2.24449 9.82719,6.67279 3.45771,4.4283 3.45771,9.3419 0,6.67278 -5.88418,11.16175 -8.43197,6.49079 -21.89886,6.49079 -5.39889,0 -10.00918,-0.97058 -4.54963,-0.90993 -8.37131,-2.72978 -0.90993,0.7886 -1.94118,1.21324 -1.03124,0.42463 -2.12315,0.42463 -2.91177,0 -4.67095,-1.88051 -1.69853,-1.94118 -1.69853,-6.43014 l 0,-4.18566 q 0,-4.48896 1.69853,-6.36947 1.75918,-1.94118 4.54962,-1.94118 2.24448,0 3.76103,1.2739 1.51654,1.21323 2.3658,4.24632 2.8511,2.42646 6.85477,3.70036 4.00367,1.21323 9.22058,1.21323 8.55329,0 13.2849,-2.66911 2.24449,-1.33456 2.24449,-2.79044 0,-2.42647 -3.21507,-4.00367 -3.21507,-1.5772 -13.28491,-2.66911 -14.98344,-1.57721 -20.01835,-6.06617 -5.03492,-4.4283 -5.03492,-10.9191 0,-6.67279 5.64153,-11.10109 7.64337,-6.06617 20.01836,-6.06617 4.30697,0 8.24998,0.84926 4.00367,0.78861 7.64338,2.48713 1.15257,-0.84926 2.12315,-1.27389 1.03125,-0.42463 1.88052,-0.42463 2.54779,0 4.24631,1.94117 1.69853,1.88051 1.69853,6.36948 l 0,3.03308 q 0,4.06433 -0.97059,5.52021 -1.94117,2.79044 -5.27756,2.79044 -2.24448,0 -3.94301,-1.39522 -1.69853,-1.39522 -2.18382,-3.70036 z"
         style="font-style:normal;font-variant:normal;font-weight:bold;font-stretch:normal;font-family:'Courier New';-inkscape-font-specification:'Courier New Bold';fill:#ffffff"
         id="path4385"
         inkscape:connector-curvature="0" />
      <path
         d="m 796.0423,390.95808 0,42.64516 q 3.943,0 5.82352,1.75918 1.88051,1.75919 1.88051,4.48897 0,2.72977 -1.94118,4.48896 -1.88051,1.69853 -6.36947,1.69853 l -11.82903,0 0,-2.8511 q -5.33823,2.42647 -10.19116,3.6397 -4.85293,1.21323 -9.22058,1.21323 -6.12682,0 -10.61579,-2.54779 -4.48896,-2.60845 -7.09742,-7.15807 -1.88051,-3.27573 -1.88051,-8.18933 l 0,-26.7518 -2.12316,0 q -4.48896,0 -6.43013,-1.69853 -1.88052,-1.75919 -1.88052,-4.54962 0,-2.72978 1.88052,-4.4283 1.94117,-1.75919 6.43013,-1.75919 l 14.55881,0 0,37.00362 q 0,3.94301 1.88051,5.82352 1.94117,1.81985 5.88418,1.81985 3.76103,0 8.068,-1.45588 4.36765,-1.51654 10.73712,-5.39889 l 0,-25.35658 -4.48896,0 q -4.48897,0 -6.43014,-1.69853 -1.88051,-1.75919 -1.88051,-4.54962 0,-2.72978 1.88051,-4.4283 1.94117,-1.75919 6.43014,-1.75919 l 16.92461,0 z"
         style="font-style:normal;font-variant:normal;font-weight:bold;font-stretch:normal;font-family:'Courier New';-inkscape-font-specification:'Courier New Bold';fill:#ffffff"
         id="path4387"
         inkscape:connector-curvature="0" />
      <path
         d="m 850.33451,367.36068 0,66.24256 14.92277,0 q 4.48897,0 6.36948,1.75918 1.94117,1.69853 1.94117,4.48897 0,2.72977 -1.94117,4.48896 -1.88051,1.69853 -6.36948,1.69853 l -42.28119,0 q -4.48896,0 -6.43013,-1.69853 -1.88052,-1.75919 -1.88052,-4.54962 0,-2.72978 1.88052,-4.42831 1.94117,-1.75918 6.43013,-1.75918 l 14.92278,0 0,-53.80691 -10.00918,0 q -4.4283,0 -6.36948,-1.69853 -1.94117,-1.75919 -1.94117,-4.54962 0,-2.72978 1.88051,-4.42831 1.94118,-1.75919 6.43014,-1.75919 l 22.44482,0 z"
         style="font-style:normal;font-variant:normal;font-weight:bold;font-stretch:normal;font-family:'Courier New';-inkscape-font-specification:'Courier New Bold';fill:#ffffff"
         id="path4389"
         inkscape:connector-curvature="0" />
      <path
         d="m 915.5458,403.39372 0,24.93195 q 0,4.00367 1.63786,5.27757 2.54779,2.00183 9.09925,2.00183 9.52389,0 17.59189,-4.06433 3.09375,-1.57721 4.85293,-1.57721 2.42647,0 4.18566,1.81986 1.81985,1.81985 1.81985,4.4283 0,2.42646 -1.94117,4.18565 -2.97243,2.8511 -11.76837,5.27757 -8.73528,2.3658 -14.74079,2.3658 -11.58638,0 -17.4099,-4.97425 -5.76286,-5.03492 -5.76286,-12.31432 l 0,-27.35842 -4.48896,0 q -4.48897,0 -6.43014,-1.69853 -1.88051,-1.75919 -1.88051,-4.54962 0,-2.72978 1.88051,-4.4283 1.94117,-1.75919 6.43014,-1.75919 l 4.48896,0 0,-11.22241 q 0,-4.48897 1.69853,-6.36948 1.75919,-1.94117 4.54963,-1.94117 2.72977,0 4.4283,1.94117 1.75919,1.88051 1.75919,6.36948 l 0,11.22241 22.99077,0 q 4.48897,0 6.36948,1.75919 1.94117,1.69852 1.94117,4.48896 0,2.72977 -1.94117,4.48896 -1.88051,1.69853 -6.36948,1.69853 l -22.99077,0 z"
         style="font-style:normal;font-variant:normal;font-weight:bold;font-stretch:normal;font-family:'Courier New';-inkscape-font-specification:'Courier New Bold';fill:#ffffff"
         id="path4391"
         inkscape:connector-curvature="0" />
      <path
         d="m 997.56037,367.36068 0,13.16359 -14.80145,0 0,-13.16359 14.80145,0 z m 1.69853,23.5974 0,42.64516 14.9228,0 q 4.4889,0 6.3694,1.75918 1.9412,1.69853 1.9412,4.48897 0,2.72977 -1.9412,4.48896 -1.8805,1.69853 -6.3694,1.69853 l -42.28122,0 q -4.48897,0 -6.43014,-1.69853 -1.88051,-1.75919 -1.88051,-4.54962 0,-2.72978 1.88051,-4.42831 1.94117,-1.75918 6.43014,-1.75918 l 14.92277,0 0,-30.20952 -10.00918,0 q -4.4283,0 -6.36947,-1.69853 -1.94118,-1.75919 -1.94118,-4.54962 0,-2.72978 1.88052,-4.4283 1.94117,-1.75919 6.43013,-1.75919 l 22.44483,0 z"
         style="font-style:normal;font-variant:normal;font-weight:bold;font-stretch:normal;font-family:'Courier New';-inkscape-font-specification:'Courier New Bold';fill:#ffffff"
         id="path4393"
         inkscape:connector-curvature="0" />
      <path
         d="m 1055.007,390.95808 0,4.18565 q 3.397,-2.91176 7.4614,-4.36764 4.125,-1.45588 8.9172,-1.45588 11.0405,0 17.4706,6.85477 5.0956,5.45955 5.0956,14.31616 l 0,23.1121 q 3.943,0 5.8235,1.75918 1.8805,1.69853 1.8805,4.48897 0,2.72977 -1.9412,4.48896 -1.8805,1.69853 -6.3694,1.69853 l -11.2224,0 q -4.489,0 -6.4302,-1.69853 -1.8805,-1.75919 -1.8805,-4.54962 0,-2.72978 1.8805,-4.42831 1.8805,-1.75918 5.8235,-1.75918 l 0,-23.47607 q 0,-4.06434 -2.1838,-5.94485 -2.8511,-2.42647 -8.5533,-2.42647 -4.307,0 -7.5827,1.69853 -3.2151,1.63787 -8.1893,7.03676 l 0,23.1121 q 4.7923,0 6.1875,0.90992 2.9724,1.81985 2.9724,5.33823 0,2.72977 -1.9412,4.48896 -1.8805,1.69853 -6.3694,1.69853 l -14.1342,0 q -4.489,0 -6.4302,-1.69853 -1.8805,-1.75919 -1.8805,-4.54962 0,-3.39706 2.9118,-5.27757 1.4559,-0.90992 6.2481,-0.90992 l 0,-30.20952 q -3.943,0 -5.8235,-1.75919 -1.8805,-1.75919 -1.8805,-4.48896 0,-2.72978 1.8805,-4.4283 1.9412,-1.75919 6.4302,-1.75919 l 11.829,0 z"
         style="font-style:normal;font-variant:normal;font-weight:bold;font-stretch:normal;font-family:'Courier New';-inkscape-font-specification:'Courier New Bold';fill:#ffffff"
         id="path4395"
         inkscape:connector-curvature="0" />
      <path
         d="m 1155.7661,394.65844 0,-3.70036 14.5588,0 q 4.4889,0 6.3694,1.75919 1.9412,1.69852 1.9412,4.48896 0,2.72977 -1.9412,4.48896 -1.8805,1.69853 -6.3694,1.69853 l -2.1232,0 0,45.25361 q 0,6.55146 -2.7904,11.4044 -2.7298,4.91359 -8.432,8.43197 -5.7022,3.51838 -12.8603,3.51838 l -14.0735,0 q -4.489,0 -6.4301,-1.75919 -1.8806,-1.69853 -1.8806,-4.4283 0,-2.79044 1.8806,-4.54963 1.9411,-1.69853 6.4301,-1.69853 l 13.7095,0 q 5.7022,0 8.8566,-3.09374 3.1545,-3.09375 3.1545,-7.82536 l 0,-6.06617 q -4.125,2.66912 -8.432,4.00367 -4.2463,1.33456 -8.7353,1.33456 -12.6783,0 -21.2316,-8.43197 -8.5533,-8.49264 -8.5533,-20.92828 0,-12.49631 8.5533,-20.92828 8.5533,-8.49263 21.2316,-8.49263 4.7316,0 8.9779,1.39521 4.307,1.33456 8.1894,4.125 z m -0.061,23.84004 q 0,-6.85477 -5.0956,-11.88969 -5.0349,-5.03492 -12.1323,-5.03492 -7.0974,0 -12.193,5.03492 -5.0349,5.03492 -5.0349,11.88969 0,6.91543 5.0349,11.95035 5.0956,4.97426 12.193,4.97426 7.0974,0 12.1323,-4.97426 5.0956,-5.03492 5.0956,-11.95035 z"
         style="font-style:normal;font-variant:normal;font-weight:bold;font-stretch:normal;font-family:'Courier New';-inkscape-font-specification:'Courier New Bold';fill:#ffffff"
         id="path4397"
         inkscape:connector-curvature="0" />
    </g>
  </g>
</svg>
